# xmcd
#
# Track frame offsets: 
#        150
#        25441
#        42901
#        59117
#        79574
#        107089
#        127478
#        147797
#        173974
#        192212
#        218317
#
# Disc length: 3198 seconds
#
# Revision: 0
# Processed by: cddbd v1.5.2PL0 Copyright (c) Steve Scherf et al.
# Submitted via: ExactAudioCopyFreeDBPlugin 1.0
#
DISCID=9f0c7c0b
DTITLE=Phuong Thanh - Me oi
DYEAR=1900
DGENRE=
TTITLE0=Me oi
TTITLE1=Lam Truong - Hat Suong tren la
TTITLE2=Thu Phuong - Gio dem
TTITLE3=Hoa hoc tro
TTITLE4=Bang Kieu - Dem giao thua vang em
TTITLE5=Quang Linh - Khi khong co me
TTITLE6=Tran Thu Ha - Mua xuan
TTITLE7=Day dut
TTITLE8=Lam Truong - Chuyen tinh Tokyo
TTITLE9=My Linh - May xua
TTITLE10=Thu Phuong - Tinh buon
EXTD=
EXTT0=
EXTT1=
EXTT2=
EXTT3=
EXTT4=
EXTT5=
EXTT6=
EXTT7=
EXTT8=
EXTT9=
EXTT10=
PLAYORDER=
